HIERARCHY
ROOT Hips
{
 OFFSET 0.000000 0.000000 0.000000
 CHANNELS 6 Xposition Yposition Zposition Yrotation Xrotation Zrotation
 JOINT Chest
 {
  OFFSET 0.000000 9.585900 0.002600
  CHANNELS 3 Yrotation Xrotation Zrotation
  JOINT Chest2
  {
   OFFSET 0.000000 9.601200 -0.005300
   CHANNELS 3 Yrotation Xrotation Zrotation
   JOINT Chest3
   {
    OFFSET 0.000000 9.561800 0.000000
    CHANNELS 3 Yrotation Xrotation Zrotation
    JOINT Chest4
    {
     OFFSET 0.000000 9.552100 0.000000
     CHANNELS 3 Yrotation Xrotation Zrotation
     JOINT Neck
     {
      OFFSET 0.000000 14.453000 0.000000
      CHANNELS 3 Yrotation Xrotation Zrotation
      JOINT Head
      {
       OFFSET 0.000000 8.936500 -0.011300
       CHANNELS 3 Yrotation Xrotation Zrotation
       End Site
       {
        OFFSET 0.000000 17.073600 -0.006000
       }
      }
     }
     JOINT RightCollar
     {
      OFFSET -2.921100 9.558500 0.000000
      CHANNELS 3 Yrotation Xrotation Zrotation
      JOINT RightShoulder
      {
       OFFSET -13.519700 0.000000 0.000000
       CHANNELS 3 Yrotation Xrotation Zrotation
       JOINT RightElbow
       {
        OFFSET 0.000000 -29.696600 0.000000
        CHANNELS 3 Yrotation Xrotation Zrotation
        JOINT RightWrist
        {
         OFFSET 0.000000 -24.004700 0.000000
         CHANNELS 3 Yrotation Xrotation Zrotation
         End Site
         {
          OFFSET 0.000000 -17.728500 0.000000
         }
        }
       }
      }
     }
     JOINT LeftCollar
     {
      OFFSET 2.921100 9.558500 0.000000
      CHANNELS 3 Yrotation Xrotation Zrotation
      JOINT LeftShoulder
      {
       OFFSET 13.519700 0.000000 0.000000
       CHANNELS 3 Yrotation Xrotation Zrotation
       JOINT LeftElbow
       {
        OFFSET 0.000000 -29.696600 0.000000
        CHANNELS 3 Yrotation Xrotation Zrotation
        JOINT LeftWrist
        {
         OFFSET 0.000000 -24.004700 0.000000
         CHANNELS 3 Yrotation Xrotation Zrotation
         End Site
         {
          OFFSET 0.000000 -17.728500 0.000000
         }
        }
       }
      }
     }
    }
   }
  }
 }
 JOINT RightHip
 {
  OFFSET -7.771700 -0.012900 -0.001300
  CHANNELS 3 Yrotation Xrotation Zrotation
  JOINT RightKnee
  {
   OFFSET 0.000000 -40.869800 0.001200
   CHANNELS 3 Yrotation Xrotation Zrotation
   JOINT RightAnkle
   {
    OFFSET 0.000000 -39.717900 0.002100
    CHANNELS 3 Yrotation Xrotation Zrotation
    JOINT RightToe
    {
     OFFSET 0.000000 -4.965400 11.033500
     CHANNELS 3 Yrotation Xrotation Zrotation
     End Site
     {
      OFFSET 0.000000 -1.423100 5.872300
     }
    }
   }
  }
 }
 JOINT LeftHip
 {
  OFFSET 7.771700 -0.012900 -0.001300
  CHANNELS 3 Yrotation Xrotation Zrotation
  JOINT LeftKnee
  {
   OFFSET 0.000000 -40.869800 0.001200
   CHANNELS 3 Yrotation Xrotation Zrotation
   JOINT LeftAnkle
   {
    OFFSET 0.000000 -39.717900 0.002100
    CHANNELS 3 Yrotation Xrotation Zrotation
    JOINT LeftToe
    {
     OFFSET 0.000000 -4.965400 11.033500
     CHANNELS 3 Yrotation Xrotation Zrotation
     End Site
     {
      OFFSET 0.000000 -1.423100 5.872300
     }
    }
   }
  }
 }
}
MOTION
Frames: 5
Frame Time: 0.008333
0.000000 85.388000 0.000000 0.000000 -5.767877 0.000000 0.000000 11.653817 0.000000 0.000000 -5.885947 0.000000 0.000000 -0.000000 0.000000 0.000000 -0.000000 0.000000 0.000000 12.528835 0.000000 0.000000 0.711642 0.000000 0.000000 -0.000000 0.000000 0.000000 0.000000 -90.000000 0.000000 -2.309062 0.000000 0.000000 2.309062 0.000000 0.000000 -0.000000 0.000000 0.000000 -0.000000 90.000000 0.000000 -2.309062 0.000000 0.000000 2.309062 0.000000 0.000000 8.520406 0.000000 0.000000 1.905762 0.000000 -0.000000 -4.658285 0.000000 0.000000 -0.000000 0.000000 0.000000 8.520406 0.000000 0.000000 1.905762 0.000000 -0.000000 -4.658285 0.000000 0.000000 -0.000000 0.000000
25.911781 49.947033 60.375755 173.898474 -31.837331 -6.417624 7.740173 22.947462 7.257105 1.094723 3.648816 0.785601 1.741636 5.830226 1.283873 6.476727 19.165502 5.099753 -3.382606 22.591241 5.596031 -7.563694 6.663990 10.978591 -4.240776 0.269110 -6.308745 16.276552 -20.137587 -8.032347 -168.960392 -55.689251 171.780558 -5.582792 -8.422485 12.747218 -16.505357 4.002062 0.665921 -5.851541 -29.198933 2.327018 136.871791 -50.805053 -156.340020 40.471396 3.516550 -24.131988 -1.467847 -47.871006 10.252173 -134.159784 83.046268 -121.634733 -0.755173 -15.916960 -5.671892 -0.177542 0.918026 -0.051776 -6.629500 -52.673470 15.316479 -149.585034 80.170829 -157.520497 -0.362396 -17.341868 9.256367 -0.308635 -0.830768 -0.156151
25.907227 49.953755 60.375645 173.937537 -31.897758 -6.423188 7.742290 23.018468 7.269825 1.120819 3.671578 0.795401 1.721366 5.836951 1.281211 6.534520 19.242768 5.131757 -3.407560 22.730471 5.717237 -7.626291 6.937799 11.192242 -4.237769 0.338265 -6.232818 16.411261 -20.476020 -7.972047 -168.902916 -56.475078 171.419168 -5.694111 -8.114247 12.019076 -16.615929 4.106933 0.750989 -6.059264 -29.485325 2.267810 136.316050 -51.284728 -155.514591 40.386855 3.526195 -22.974724 -1.371526 -47.829046 10.226985 -134.000714 83.025977 -121.470839 -0.852342 -15.887800 -5.618791 -0.202886 0.916824 -0.036236 -6.609020 -52.606894 15.294467 -149.411127 80.176264 -157.366764 -0.384898 -17.315290 9.274981 -0.297702 -0.835311 -0.139049
25.903920 49.961677 60.378072 173.963390 -31.959691 -6.435945 7.820905 23.076427 7.334057 1.062168 3.679509 0.783201 1.726991 5.858440 1.285238 6.594763 19.302649 5.168486 -3.432313 22.841724 5.819346 -7.685886 7.157900 11.373417 -4.232631 0.396510 -6.174475 16.603388 -20.765255 -7.912855 -168.812961 -57.159529 170.999937 -5.787299 -7.865794 11.299770 -16.744201 4.183265 0.822316 -6.228686 -29.716619 2.200685 135.833442 -51.735844 -154.769449 40.290404 3.515535 -21.919557 -1.329095 -47.774202 10.221105 -133.889058 83.017390 -121.359289 -0.865719 -15.847897 -5.617371 -0.204494 0.910372 -0.019709 -6.606995 -52.538225 15.300666 -149.225694 80.179019 -157.201218 -0.402627 -17.289599 9.283967 -0.283991 -0.840131 -0.120198
25.897244 49.969325 60.384160 173.974004 -32.009846 -6.429434 7.851103 23.119345 7.352112 1.053966 3.693855 0.782842 1.805029 5.932230 1.321727 6.566788 19.301463 5.175353 -3.455792 22.922009 5.899356 -7.740199 7.318104 11.516880 -4.216559 0.433297 -6.129153 16.843907 -21.008383 -7.855354 -168.661529 -57.735675 170.512256 -5.862881 -7.671672 10.620606 -16.884449 4.227086 0.876341 -6.391578 -29.890942 2.143357 135.506221 -52.156578 -154.155685 40.164528 3.477691 -21.020085 -1.262149 -47.737841 10.212291 -133.758938 83.021071 -121.284575 -0.806749 -15.802014 -5.547314 -0.265749 0.919508 -0.046118 -6.592125 -52.482716 15.299016 -149.018435 80.185779 -157.021928 -0.417327 -17.253284 9.270405 -0.264886 -0.846573 -0.082194
